<svg xmlns="http://www.w3.org/2000/svg" xmlns:xlink="http://www.w3.org/1999/xlink" width="400" height="400" viewBox="0 0 400 400"><rect width="200" height="400" fill="url(#color-bg)"/><rect width="200" height="400" x="200" fill="url(#color-bg-dark)"/><defs><linearGradient id="color-fg"><stop stop-color="#000" stop-opacity=".87"/></linearGradient><linearGradient id="color-fg-dark"><stop stop-color="#FFF"/></linearGradient><linearGradient id="color-fg-secondary"><stop stop-color="#000" stop-opacity=".54"/></linearGradient><linearGradient id="color-fg-secondary-dark"><stop stop-color="#FFF" stop-opacity=".7"/></linearGradient><linearGradient id="color-fg-secondary-disabled"><stop stop-color="#000" stop-opacity=".26"/></linearGradient><linearGradient id="color-fg-secondary-disabled-dark"><stop stop-color="#FFF" stop-opacity=".3"/></linearGradient><linearGradient id="color-divider"><stop stop-color="#000" stop-opacity=".12"/></linearGradient><linearGradient id="color-divider-dark"><stop stop-color="#FFF" stop-opacity=".12"/></linearGradient><linearGradient id="color-accent"><stop stop-color="#009688"/></linearGradient><linearGradient id="color-accent-disabled"><stop stop-color="#009688" stop-opacity=".5"/></linearGradient><linearGradient id="color-bg"><stop stop-color="#EEE"/></linearGradient><linearGradient id="color-bg-dark"><stop stop-color="#212121"/></linearGradient><linearGradient id="color-bg-lighter"><stop stop-color="#FAFAFA"/></linearGradient><linearGradient id="color-bg-lighter-dark"><stop stop-color="#424242"/></linearGradient><linearGradient id="color-base"><stop stop-color="#FFF"/></linearGradient><linearGradient id="color-base-dark"><stop stop-color="#303030"/></linearGradient><filter id="1" width="1" height="1" x="0" y="0" color-interpolation-filters="sRGB"><feFlood flood-color="#000" flood-opacity=".12" result="flood"/><feComposite in="flood" in2="SourceGraphic" operator="in" result="composite1"/><feGaussianBlur in="composite1" result="blur" stdDeviation="1.5"/><feOffset dx="0" dy="1" result="offset"/><feComposite in="SourceGraphic" in2="offset" result="fbSourceGraphic"/><feFlood flood-color="#000" flood-opacity=".24" result="flood"/><feComposite in="flood" in2="fbSourceGraphic" operator="in" result="composite1"/><feGaussianBlur in="composite1" result="blur" stdDeviation="1"/><feOffset dx="0" dy="1" result="offset"/><feComposite in="fbSourceGraphic" in2="offset" result="composite2"/></filter><filter id="2" width="1" height="1" x="0" y="0" color-interpolation-filters="sRGB"><feFlood flood-color="#000" flood-opacity=".16" result="flood"/><feComposite in="flood" in2="SourceGraphic" operator="in" result="composite1"/><feGaussianBlur in="composite1" result="blur" stdDeviation="3"/><feOffset dx="0" dy="3" result="offset"/><feComposite in="SourceGraphic" in2="offset" result="fbSourceGraphic"/><feFlood flood-color="#000" flood-opacity=".23" result="flood"/><feComposite in="flood" in2="fbSourceGraphic" operator="in" result="composite1"/><feGaussianBlur in="composite1" result="blur" stdDeviation="3"/><feOffset dx="0" dy="3" result="offset"/><feComposite in="fbSourceGraphic" in2="offset" result="composite2"/></filter><path id="checkbox-unchecked-path" d="M19 5v14H5V5h14m0-2H5c-1.1 0-2 .9-2 2v14c0 1.1.9 2 2 2h14c1.1 0 2-.9 2-2V5c0-1.1-.9-2-2-2z"/><path id="checkbox-checked-path" d="M19 3H5c-1.11 0-2 .9-2 2v14c0 1.1.89 2 2 2h14c1.11 0 2-.9 2-2V5c0-1.1-.89-2-2-2zm-9 14l-5-5 1.41-1.41L10 14.17l7.59-7.59L19 8l-9 9z"/><path id="checkbox-mixed-path" d="M19 3H5c-1.1 0-2 .9-2 2v14c0 1.1.9 2 2 2h14c1.1 0 2-.9 2-2V5c0-1.1-.9-2-2-2zm-2 10H7v-2h10v2z"/><path id="radio-unchecked-path" d="M12 2C6.48 2 2 6.48 2 12s4.48 10 10 10 10-4.48 10-10S17.52 2 12 2zm0 18c-4.42 0-8-3.58-8-8s3.58-8 8-8 8 3.58 8 8-3.58 8-8 8z"/><path id="radio-checked-path" d="M12 7c-2.76 0-5 2.24-5 5s2.24 5 5 5 5-2.24 5-5-2.24-5-5-5zm0-5C6.48 2 2 6.48 2 12s4.48 10 10 10 10-4.48 10-10S17.52 2 12 2zm0 18c-4.42 0-8-3.58-8-8s3.58-8 8-8 8 3.58 8 8-3.58 8-8 8z"/><path id="radio-mixed-path" d="m12 2c-5.52 0-10 4.48-10 10s4.48 10 10 10 10-4.48 10-10-4.48-10-10-10zm0 2c4.42 0 8 3.58 8 8s-3.58 8-8 8-8-3.58-8-8 3.58-8 8-8zm-5 7v2h10v-2h-10z"/><path id="menu-checkbox-unchecked-path" d="m2 0a2 2 0 0 0 -2 2v12a2 2 0 0 0 2 2h12a2 2 0 0 0 2 -2v-12a2 2 0 0 0 -2 -2h-12zm0 2h12v12h-12v-12z"/><path id="menu-checkbox-checked-path" d="m2 0a2 2 0 0 0 -2 2v12a2 2 0 0 0 2 2h12a2 2 0 0 0 2 -2v-12a2 2 0 0 0 -2 -2h-12zm10.6 3.59l1.41 1.41-8 8-4-4 1.41-1.41 2.59 2.59 6.59-6.59z"/><path id="menu-checkbox-mixed-path" d="m2 0a2 2 0 0 0 -2 2v12a2 2 0 0 0 2 2h12a2 2 0 0 0 2 -2v-12a2 2 0 0 0 -2 -2h-12zm2 7h8v2h-8v-2z"/><path id="menu-radio-unchecked-path" d="m8 0a8 8 0 0 0 -8 8 8 8 0 0 0 8 8 8 8 0 0 0 8 -8 8 8 0 0 0 -8 -8zm0 2a6 6 0 0 1 6 6 6 6 0 0 1 -6 6 6 6 0 0 1 -6 -6 6 6 0 0 1 6 -6z"/><path id="menu-radio-checked-path" d="m8 0a8 8 0 0 0 -8 8 8 8 0 0 0 8 8 8 8 0 0 0 8 -8 8 8 0 0 0 -8 -8zm0 2a6 6 0 0 1 6 6 6 6 0 0 1 -6 6 6 6 0 0 1 -6 -6 6 6 0 0 1 6 -6zm0 2a4 4 0 0 0 -4 4 4 4 0 0 0 4 4 4 4 0 0 0 4 -4 4 4 0 0 0 -4 -4z"/><path id="menu-radio-mixed-path" d="m8 0a8 8 0 0 0 -8 8 8 8 0 0 0 8 8 8 8 0 0 0 8 -8 8 8 0 0 0 -8 -8zm0 2a6 6 0 0 1 6 6 6 6 0 0 1 -6 6 6 6 0 0 1 -6 -6 6 6 0 0 1 6 -6zm-4 5v2h8v-2h-8z"/><rect id="button-fill" width="24" height="24" rx="2" ry="2"/><path id="check-path" d="M9 16.17L4.83 12l-1.42 1.41L9 19 21 7l-1.41-1.41z"/><path id="slider-fill" d="M 21,10.5 A 10.5,10.5 0 0 1 10.5,21 10.5,10.5 0 0 1 0,10.5 10.5,10.5 0 0 1 10.5,0 10.5,10.5 0 0 1 21,10.5 Z"/><path id="slider-stroke" d="m10.5 0a10.5 10.5 0 0 0 -10.5 10.5 10.5 10.5 0 0 0 10.5 10.5 10.5 10.5 0 0 0 10.5 -10.5 10.5 10.5 0 0 0 -10.5 -10.5zm0 3a7.5 7.5 0 0 1 7.5 7.5 7.5 7.5 0 0 1 -7.5 7.5 7.5 7.5 0 0 1 -7.5 -7.5 7.5 7.5 0 0 1 7.5 -7.5z"/><path id="marks-slider-fill" d="m10.5 0a10.5 10.5 0 0 0 -10.5 10.5 10.5 10.5 0 0 0 10.5 10.5h10.5v-10.5a10.5 10.5 0 0 0 -10.5 -10.5z"/><path id="marks-slider-stroke" d="m10.5 0a10.5 10.5 0 0 0 -10.5 10.5 10.5 10.5 0 0 0 10.5 10.5h10.5v-10.5a10.5 10.5 0 0 0 -10.5 -10.5zm0 3a7.5 7.5 0 0 1 7.5 7.5v7.5h-7.5a7.5 7.5 0 0 1 -7.5 -7.5 7.5 7.5 0 0 1 7.5 -7.5z"/><rect id="box-fill" width="32" height="32" rx="2" ry="2"/><rect id="16x16" width="16" height="16" opacity="0"/><rect id="21x21" width="21" height="21" opacity="0"/><rect id="21x26" width="21" height="26" opacity="0"/><rect id="40x40" width="40" height="40" opacity="0"/><rect id="48x48" width="48" height="48" opacity="0"/><g id="base-checkbox-unchecked"><use opacity="0" xlink:href="#button-fill"/><use xlink:href="#checkbox-unchecked-path"/></g><g id="base-checkbox-unchecked-hover"><use opacity=".15" xlink:href="#button-fill"/><use xlink:href="#checkbox-unchecked-path"/></g><g id="base-checkbox-unchecked-active"><use opacity=".3" xlink:href="#button-fill"/><use xlink:href="#checkbox-unchecked-path"/></g><g id="base-checkbox-checked"><use opacity="0" xlink:href="#button-fill"/><use xlink:href="#checkbox-checked-path"/></g><g id="base-checkbox-checked-hover"><use opacity=".15" xlink:href="#button-fill"/><use xlink:href="#checkbox-checked-path"/></g><g id="base-checkbox-checked-active"><use opacity=".3" xlink:href="#button-fill"/><use xlink:href="#checkbox-checked-path"/></g><g id="base-checkbox-mixed"><use opacity="0" xlink:href="#button-fill"/><use xlink:href="#checkbox-mixed-path"/></g><g id="base-checkbox-mixed-hover"><use opacity=".15" xlink:href="#button-fill"/><use xlink:href="#checkbox-mixed-path"/></g><g id="base-checkbox-mixed-active"><use opacity=".3" xlink:href="#button-fill"/><use xlink:href="#checkbox-mixed-path"/></g><g id="base-radio-unchecked"><use opacity="0" xlink:href="#button-fill"/><use xlink:href="#radio-unchecked-path"/></g><g id="base-radio-unchecked-hover"><use opacity=".15" xlink:href="#button-fill"/><use xlink:href="#radio-unchecked-path"/></g><g id="base-radio-unchecked-active"><use opacity=".3" xlink:href="#button-fill"/><use xlink:href="#radio-unchecked-path"/></g><g id="base-radio-checked"><use opacity="0" xlink:href="#button-fill"/><use xlink:href="#radio-checked-path"/></g><g id="base-radio-checked-hover"><use opacity=".15" xlink:href="#button-fill"/><use xlink:href="#radio-checked-path"/></g><g id="base-radio-checked-active"><use opacity=".3" xlink:href="#button-fill"/><use xlink:href="#radio-checked-path"/></g><g id="base-radio-mixed"><use opacity="0" xlink:href="#button-fill"/><use xlink:href="#radio-mixed-path"/></g><g id="base-radio-mixed-hover"><use opacity=".15" xlink:href="#button-fill"/><use xlink:href="#radio-mixed-path"/></g><g id="base-radio-mixed-active"><use opacity=".3" xlink:href="#button-fill"/><use xlink:href="#radio-mixed-path"/></g><g id="base-menu-checkbox-unchecked"><use xlink:href="#16x16"/><use xlink:href="#menu-checkbox-unchecked-path"/></g><g id="base-menu-checkbox-checked"><use xlink:href="#16x16"/><use xlink:href="#menu-checkbox-checked-path"/></g><g id="base-menu-checkbox-mixed"><use xlink:href="#16x16"/><use xlink:href="#menu-checkbox-mixed-path"/></g><g id="base-menu-radio-unchecked"><use xlink:href="#16x16"/><use xlink:href="#menu-radio-unchecked-path"/></g><g id="base-menu-radio-checked"><use xlink:href="#16x16"/><use xlink:href="#menu-radio-checked-path"/></g><g id="base-menu-radio-mixed"><use xlink:href="#16x16"/><use xlink:href="#menu-radio-mixed-path"/></g><g id="base-selectionmode-checkbox-unchecked"><use xlink:href="#40x40"/><use transform="matrix(1.5 0 0 1.5 2 2)" xlink:href="#button-fill"/></g><g id="base-selectionmode-checkbox-checked"><use xlink:href="#40x40"/><use fill="url(#color-accent)" transform="matrix(1.5 0 0 1.5 2 2)" xlink:href="#button-fill"/><use fill="url(#color-fg-dark)" transform="matrix(1.5 0 0 1.5 2 2)" xlink:href="#check-path"/></g><g id="base-scale-slider"><use xlink:href="#21x21"/><use fill="url(#color-accent)" xlink:href="#slider-fill"/></g><g id="base-scale-slider-disabled"><use xlink:href="#21x21"/><use fill="url(#color-bg)" xlink:href="#slider-fill"/><use fill="url(#color-divider)" xlink:href="#slider-stroke"/></g><g id="base-scale-slider-disabled-dark"><use xlink:href="#21x21"/><use fill="url(#color-bg-dark)" xlink:href="#slider-fill"/><use fill="url(#color-divider-dark)" xlink:href="#slider-stroke"/></g><g id="base-scale-horz-marks-after-slider"><use xlink:href="#21x26"/><use fill="url(#color-accent)" transform="rotate(45 10.5 10.5)" xlink:href="#marks-slider-fill"/></g><use id="base-scale-vert-marks-before-slider" transform="rotate(90 10.5 10.5)" xlink:href="#base-scale-horz-marks-after-slider"/><use id="base-scale-horz-marks-before-slider" transform="rotate(180 10.5 10.5)" xlink:href="#base-scale-horz-marks-after-slider"/><use id="base-scale-vert-marks-after-slider" transform="rotate(270 10.5 10.5)" xlink:href="#base-scale-horz-marks-after-slider"/><g id="base-scale-horz-marks-after-slider-disabled"><use xlink:href="#21x26"/><use fill="url(#color-bg)" transform="rotate(45 10.5 10.5)" xlink:href="#marks-slider-fill"/><use fill="url(#color-divider)" transform="rotate(45 10.5 10.5)" xlink:href="#marks-slider-stroke"/></g><use id="base-scale-vert-marks-before-slider-disabled" transform="rotate(90 10.5 10.5)" xlink:href="#base-scale-horz-marks-after-slider-disabled"/><use id="base-scale-horz-marks-before-slider-disabled" transform="rotate(180 10.5 10.5)" xlink:href="#base-scale-horz-marks-after-slider-disabled"/><use id="base-scale-vert-marks-after-slider-disabled" transform="rotate(270 10.5 10.5)" xlink:href="#base-scale-horz-marks-after-slider-disabled"/><g id="base-scale-horz-marks-after-slider-disabled-dark"><use xlink:href="#21x26"/><use fill="url(#color-bg-dark)" transform="rotate(45 10.5 10.5)" xlink:href="#marks-slider-fill"/><use fill="url(#color-divider-dark)" transform="rotate(45 10.5 10.5)" xlink:href="#marks-slider-stroke"/></g><use id="base-scale-vert-marks-before-slider-disabled-dark" transform="rotate(90 10.5 10.5)" xlink:href="#base-scale-horz-marks-after-slider-disabled-dark"/><use id="base-scale-horz-marks-before-slider-disabled-dark" transform="rotate(180 10.5 10.5)" xlink:href="#base-scale-horz-marks-after-slider-disabled-dark"/><use id="base-scale-vert-marks-after-slider-disabled-dark" transform="rotate(270 10.5 10.5)" xlink:href="#base-scale-horz-marks-after-slider-disabled-dark"/><g id="base-box"><use xlink:href="#48x48"/><use x="8" y="8" xlink:href="#box-fill"/></g></defs><use id="checkbox-unchecked" x="8" y="8" fill="url(#color-fg-secondary)" xlink:href="#base-checkbox-unchecked"/><use id="checkbox-unchecked-hover" x="8" y="40" fill="url(#color-fg)" xlink:href="#base-checkbox-unchecked-hover"/><use id="checkbox-unchecked-active" x="8" y="72" fill="url(#color-fg)" xlink:href="#base-checkbox-unchecked-active"/><use id="checkbox-unchecked-disabled" x="8" y="104" fill="url(#color-fg-secondary-disabled)" xlink:href="#base-checkbox-unchecked"/><use id="checkbox-checked" x="40" y="8" fill="url(#color-accent)" xlink:href="#base-checkbox-checked"/><use id="checkbox-checked-hover" x="40" y="40" fill="url(#color-accent)" xlink:href="#base-checkbox-checked-hover"/><use id="checkbox-checked-active" x="40" y="72" fill="url(#color-accent)" xlink:href="#base-checkbox-checked-active"/><use id="checkbox-checked-disabled" x="40" y="104" fill="url(#color-accent-disabled)" xlink:href="#base-checkbox-checked"/><use id="checkbox-mixed" x="72" y="8" fill="url(#color-accent)" xlink:href="#base-checkbox-mixed"/><use id="checkbox-mixed-hover" x="72" y="40" fill="url(#color-accent)" xlink:href="#base-checkbox-mixed-hover"/><use id="checkbox-mixed-active" x="72" y="72" fill="url(#color-accent)" xlink:href="#base-checkbox-mixed-active"/><use id="checkbox-mixed-disabled" x="72" y="104" fill="url(#color-accent-disabled)" xlink:href="#base-checkbox-mixed"/><use id="radio-unchecked" x="104" y="8" fill="url(#color-fg-secondary)" xlink:href="#base-radio-unchecked"/><use id="radio-unchecked-hover" x="104" y="40" fill="url(#color-fg)" xlink:href="#base-radio-unchecked-hover"/><use id="radio-unchecked-active" x="104" y="72" fill="url(#color-fg)" xlink:href="#base-radio-unchecked-active"/><use id="radio-unchecked-disabled" x="104" y="104" fill="url(#color-fg-secondary-disabled)" xlink:href="#base-radio-unchecked"/><use id="radio-checked" x="136" y="8" fill="url(#color-accent)" xlink:href="#base-radio-checked"/><use id="radio-checked-hover" x="136" y="40" fill="url(#color-accent)" xlink:href="#base-radio-checked-hover"/><use id="radio-checked-active" x="136" y="72" fill="url(#color-accent)" xlink:href="#base-radio-checked-active"/><use id="radio-checked-disabled" x="136" y="104" fill="url(#color-accent-disabled)" xlink:href="#base-radio-checked"/><use id="radio-mixed" x="168" y="8" fill="url(#color-accent)" xlink:href="#base-radio-mixed"/><use id="radio-mixed-hover" x="168" y="40" fill="url(#color-accent)" xlink:href="#base-radio-mixed-hover"/><use id="radio-mixed-active" x="168" y="72" fill="url(#color-accent)" xlink:href="#base-radio-mixed-active"/><use id="radio-mixed-disabled" x="168" y="104" fill="url(#color-accent-disabled)" xlink:href="#base-radio-mixed"/><use id="menu-checkbox-unchecked" x="12" y="136" fill="url(#color-fg-secondary)" xlink:href="#base-menu-checkbox-unchecked"/><use id="menu-checkbox-unchecked-disabled" x="12" y="160" fill="url(#color-fg-secondary-disabled)" xlink:href="#base-menu-checkbox-unchecked"/><use id="menu-checkbox-checked" x="44" y="136" fill="url(#color-accent)" xlink:href="#base-menu-checkbox-checked"/><use id="menu-checkbox-checked-disabled" x="44" y="160" fill="url(#color-accent-disabled)" xlink:href="#base-menu-checkbox-checked"/><use id="menu-checkbox-mixed" x="76" y="136" fill="url(#color-accent)" xlink:href="#base-menu-checkbox-mixed"/><use id="menu-checkbox-mixed-disabled" x="76" y="160" fill="url(#color-accent-disabled)" xlink:href="#base-menu-checkbox-mixed"/><use id="menu-radio-unchecked" x="108" y="136" fill="url(#color-fg-secondary)" xlink:href="#base-menu-radio-unchecked"/><use id="menu-radio-unchecked-disabled" x="108" y="160" fill="url(#color-fg-secondary-disabled)" xlink:href="#base-menu-radio-unchecked"/><use id="menu-radio-checked" x="140" y="136" fill="url(#color-accent)" xlink:href="#base-menu-radio-checked"/><use id="menu-radio-checked-disabled" x="140" y="160" fill="url(#color-accent-disabled)" xlink:href="#base-menu-radio-checked"/><use id="menu-radio-mixed" x="172" y="136" fill="url(#color-accent)" xlink:href="#base-menu-radio-mixed"/><use id="menu-radio-mixed-disabled" x="172" y="160" fill="url(#color-accent-disabled)" xlink:href="#base-menu-radio-mixed"/><use id="selectionmode-checkbox-unchecked" x="8" y="184" fill="url(#color-bg-lighter)" xlink:href="#base-selectionmode-checkbox-unchecked"/><use id="selectionmode-checkbox-checked" x="56" y="184" xlink:href="#base-selectionmode-checkbox-checked"/><use id="scale-slider" x="16" y="240" xlink:href="#base-scale-slider"/><use id="scale-slider-disabled" x="16" y="280" xlink:href="#base-scale-slider-disabled"/><use id="scale-horz-marks-before-slider" x="52" y="240" xlink:href="#base-scale-horz-marks-before-slider"/><use id="scale-horz-marks-before-slider-disabled" x="52" y="280" xlink:href="#base-scale-horz-marks-before-slider-disabled"/><use id="scale-horz-marks-after-slider" x="88" y="240" xlink:href="#base-scale-horz-marks-after-slider"/><use id="scale-horz-marks-after-slider-disabled" x="88" y="280" xlink:href="#base-scale-horz-marks-after-slider-disabled"/><use id="scale-vert-marks-before-slider" x="124" y="240" xlink:href="#base-scale-vert-marks-before-slider"/><use id="scale-vert-marks-before-slider-disabled" x="124" y="280" xlink:href="#base-scale-vert-marks-before-slider-disabled"/><use id="scale-vert-marks-after-slider" x="160" y="240" xlink:href="#base-scale-vert-marks-after-slider"/><use id="scale-vert-marks-after-slider-disabled" x="160" y="280" xlink:href="#base-scale-vert-marks-after-slider-disabled"/><use id="box-shadow" x="8" y="320" fill="url(#color-base)" filter="url(#2)" xlink:href="#base-box"/><use id="box-shadow-backdrop" x="64" y="320" fill="url(#color-base)" filter="url(#1)" xlink:href="#base-box"/><use id="checkbox-unchecked-dark" x="208" y="8" fill="url(#color-fg-secondary-dark)" xlink:href="#base-checkbox-unchecked"/><use id="checkbox-unchecked-hover-dark" x="208" y="40" fill="url(#color-fg-dark)" xlink:href="#base-checkbox-unchecked-hover"/><use id="checkbox-unchecked-active-dark" x="208" y="72" fill="url(#color-fg-dark)" xlink:href="#base-checkbox-unchecked-active"/><use id="checkbox-unchecked-disabled-dark" x="208" y="104" fill="url(#color-fg-secondary-disabled-dark)" xlink:href="#base-checkbox-unchecked"/><use id="checkbox-checked-dark" x="240" y="8" fill="url(#color-accent)" xlink:href="#base-checkbox-checked"/><use id="checkbox-checked-hover-dark" x="240" y="40" fill="url(#color-accent)" xlink:href="#base-checkbox-checked-hover"/><use id="checkbox-checked-active-dark" x="240" y="72" fill="url(#color-accent)" xlink:href="#base-checkbox-checked-active"/><use id="checkbox-checked-disabled-dark" x="240" y="104" fill="url(#color-accent-disabled)" xlink:href="#base-checkbox-checked"/><use id="checkbox-mixed-dark" x="272" y="8" fill="url(#color-accent)" xlink:href="#base-checkbox-mixed"/><use id="checkbox-mixed-hover-dark" x="272" y="40" fill="url(#color-accent)" xlink:href="#base-checkbox-mixed-hover"/><use id="checkbox-mixed-active-dark" x="272" y="72" fill="url(#color-accent)" xlink:href="#base-checkbox-mixed-active"/><use id="checkbox-mixed-disabled-dark" x="272" y="104" fill="url(#color-accent-disabled)" xlink:href="#base-checkbox-mixed"/><use id="radio-unchecked-dark" x="304" y="8" fill="url(#color-fg-secondary-dark)" xlink:href="#base-radio-unchecked"/><use id="radio-unchecked-hover-dark" x="304" y="40" fill="url(#color-fg-dark)" xlink:href="#base-radio-unchecked-hover"/><use id="radio-unchecked-active-dark" x="304" y="72" fill="url(#color-fg-dark)" xlink:href="#base-radio-unchecked-active"/><use id="radio-unchecked-disabled-dark" x="304" y="104" fill="url(#color-fg-secondary-disabled-dark)" xlink:href="#base-radio-unchecked"/><use id="radio-checked-dark" x="336" y="8" fill="url(#color-accent)" xlink:href="#base-radio-checked"/><use id="radio-checked-hover-dark" x="336" y="40" fill="url(#color-accent)" xlink:href="#base-radio-checked-hover"/><use id="radio-checked-active-dark" x="336" y="72" fill="url(#color-accent)" xlink:href="#base-radio-checked-active"/><use id="radio-checked-disabled-dark" x="336" y="104" fill="url(#color-accent-disabled)" xlink:href="#base-radio-checked"/><use id="radio-mixed-dark" x="368" y="8" fill="url(#color-accent)" xlink:href="#base-radio-mixed"/><use id="radio-mixed-hover-dark" x="368" y="40" fill="url(#color-accent)" xlink:href="#base-radio-mixed-hover"/><use id="radio-mixed-active-dark" x="368" y="72" fill="url(#color-accent)" xlink:href="#base-radio-mixed-active"/><use id="radio-mixed-disabled-dark" x="368" y="104" fill="url(#color-accent-disabled)" xlink:href="#base-radio-mixed"/><use id="menu-checkbox-unchecked-dark" x="212" y="136" fill="url(#color-fg-secondary-dark)" xlink:href="#base-menu-checkbox-unchecked"/><use id="menu-checkbox-unchecked-disabled-dark" x="212" y="160" fill="url(#color-fg-secondary-disabled-dark)" xlink:href="#base-menu-checkbox-unchecked"/><use id="menu-checkbox-checked-dark" x="244" y="136" fill="url(#color-accent)" xlink:href="#base-menu-checkbox-checked"/><use id="menu-checkbox-checked-disabled-dark" x="244" y="160" fill="url(#color-accent-disabled)" xlink:href="#base-menu-checkbox-checked"/><use id="menu-checkbox-mixed-dark" x="276" y="136" fill="url(#color-accent)" xlink:href="#base-menu-checkbox-mixed"/><use id="menu-checkbox-mixed-disabled-dark" x="276" y="160" fill="url(#color-accent-disabled)" xlink:href="#base-menu-checkbox-mixed"/><use id="menu-radio-unchecked-dark" x="308" y="136" fill="url(#color-fg-secondary-dark)" xlink:href="#base-menu-radio-unchecked"/><use id="menu-radio-unchecked-disabled-dark" x="308" y="160" fill="url(#color-fg-secondary-disabled-dark)" xlink:href="#base-menu-radio-unchecked"/><use id="menu-radio-checked-dark" x="340" y="136" fill="url(#color-accent)" xlink:href="#base-menu-radio-checked"/><use id="menu-radio-checked-disabled-dark" x="340" y="160" fill="url(#color-accent-disabled)" xlink:href="#base-menu-radio-checked"/><use id="menu-radio-mixed-dark" x="372" y="136" fill="url(#color-accent)" xlink:href="#base-menu-radio-mixed"/><use id="menu-radio-mixed-disabled-dark" x="372" y="160" fill="url(#color-accent-disabled)" xlink:href="#base-menu-radio-mixed"/><use id="selectionmode-checkbox-unchecked-dark" x="208" y="184" fill="url(#color-bg-lighter-dark)" xlink:href="#base-selectionmode-checkbox-unchecked"/><use id="selectionmode-checkbox-checked-dark" x="256" y="184" xlink:href="#base-selectionmode-checkbox-checked"/><use id="scale-slider-dark" x="216" y="240" xlink:href="#base-scale-slider"/><use id="scale-slider-disabled-dark" x="216" y="280" xlink:href="#base-scale-slider-disabled-dark"/><use id="scale-horz-marks-before-slider-dark" x="252" y="240" xlink:href="#base-scale-horz-marks-before-slider"/><use id="scale-horz-marks-before-slider-disabled-dark" x="252" y="280" xlink:href="#base-scale-horz-marks-before-slider-disabled-dark"/><use id="scale-horz-marks-after-slider-dark" x="288" y="240" xlink:href="#base-scale-horz-marks-after-slider"/><use id="scale-horz-marks-after-slider-disabled-dark" x="288" y="280" xlink:href="#base-scale-horz-marks-after-slider-disabled-dark"/><use id="scale-vert-marks-before-slider-dark" x="324" y="240" xlink:href="#base-scale-vert-marks-before-slider"/><use id="scale-vert-marks-before-slider-disabled-dark" x="324" y="280" xlink:href="#base-scale-vert-marks-before-slider-disabled-dark"/><use id="scale-vert-marks-after-slider-dark" x="360" y="240" xlink:href="#base-scale-vert-marks-after-slider"/><use id="scale-vert-marks-after-slider-disabled-dark" x="360" y="280" xlink:href="#base-scale-vert-marks-after-slider-disabled-dark"/><use id="box-shadow-dark" x="208" y="320" fill="url(#color-base-dark)" filter="url(#2)" xlink:href="#base-box"/><use id="box-shadow-backdrop-dark" x="264" y="320" fill="url(#color-base-dark)" filter="url(#1)" xlink:href="#base-box"/></svg>